<mxfile host="app.diagrams.net" agent="Mozilla/5.0 (Windows NT 10.0; Win64; x64) AppleWebKit/537.36 (KHTML, like Gecko) Chrome/132.0.0.0 Safari/537.36" version="26.0.11" pages="2">
  <diagram name="Page-1" id="WhnMxPiDyNyD-MVa8N-7">
    <mxGraphModel grid="1" page="1" gridSize="10" guides="1" tooltips="1" connect="1" arrows="1" fold="1" pageScale="1" pageWidth="850" pageHeight="1100" math="0" shadow="0">
      <root>
        <mxCell id="0" />
        <mxCell id="1" parent="0" />
        <mxCell id="4IxU_vfAgLmW3s3N1iWv-1" value="" style="whiteSpace=wrap;html=1;strokeColor=#000000;align=center;verticalAlign=middle;fontFamily=Helvetica;fontSize=12;fontColor=default;fontStyle=1;fillColor=#fff2cc;" vertex="1" parent="1">
          <mxGeometry x="410" y="93" width="70" height="90" as="geometry" />
        </mxCell>
        <mxCell id="4IxU_vfAgLmW3s3N1iWv-2" value="" style="whiteSpace=wrap;html=1;strokeColor=#000000;align=center;verticalAlign=middle;fontFamily=Helvetica;fontSize=12;fontColor=default;fontStyle=1;fillColor=#fff2cc;" vertex="1" parent="1">
          <mxGeometry x="420" y="280" width="80" height="60" as="geometry" />
        </mxCell>
        <mxCell id="4IxU_vfAgLmW3s3N1iWv-3" value="" style="triangle;whiteSpace=wrap;html=1;strokeColor=#000000;align=center;verticalAlign=middle;fontFamily=Helvetica;fontSize=12;fontColor=default;fontStyle=1;fillColor=#fff2cc;" vertex="1" parent="1">
          <mxGeometry x="190" y="70" width="50" height="50" as="geometry" />
        </mxCell>
        <mxCell id="4IxU_vfAgLmW3s3N1iWv-4" value="" style="triangle;whiteSpace=wrap;html=1;strokeColor=#000000;align=center;verticalAlign=middle;fontFamily=Helvetica;fontSize=12;fontColor=default;fontStyle=1;fillColor=#fff2cc;" vertex="1" parent="1">
          <mxGeometry x="190" y="167" width="50" height="50" as="geometry" />
        </mxCell>
        <mxCell id="4IxU_vfAgLmW3s3N1iWv-5" value="" style="triangle;whiteSpace=wrap;html=1;strokeColor=#000000;align=center;verticalAlign=middle;fontFamily=Helvetica;fontSize=12;fontColor=default;fontStyle=1;fillColor=#fff2cc;" vertex="1" parent="1">
          <mxGeometry x="190" y="280" width="50" height="50" as="geometry" />
        </mxCell>
        <mxCell id="4IxU_vfAgLmW3s3N1iWv-6" value="" style="triangle;whiteSpace=wrap;html=1;strokeColor=#000000;align=center;verticalAlign=middle;fontFamily=Helvetica;fontSize=12;fontColor=default;fontStyle=1;fillColor=#fff2cc;" vertex="1" parent="1">
          <mxGeometry x="600" y="287" width="50" height="50" as="geometry" />
        </mxCell>
        <mxCell id="4IxU_vfAgLmW3s3N1iWv-7" value="" style="triangle;whiteSpace=wrap;html=1;strokeColor=#000000;align=center;verticalAlign=middle;fontFamily=Helvetica;fontSize=12;fontColor=default;fontStyle=1;fillColor=#fff2cc;" vertex="1" parent="1">
          <mxGeometry x="600" y="113" width="50" height="50" as="geometry" />
        </mxCell>
        <mxCell id="4IxU_vfAgLmW3s3N1iWv-8" value="" style="verticalLabelPosition=bottom;shadow=0;dashed=0;align=center;html=1;verticalAlign=top;shape=mxgraph.electrical.abstract.dac;strokeColor=#000000;fontFamily=Helvetica;fontSize=12;fontColor=default;fontStyle=1;fillColor=#fff2cc;" vertex="1" parent="1">
          <mxGeometry x="100" y="87" width="20" height="16" as="geometry" />
        </mxCell>
        <mxCell id="4IxU_vfAgLmW3s3N1iWv-9" value="" style="verticalLabelPosition=bottom;shadow=0;dashed=0;align=center;html=1;verticalAlign=top;shape=mxgraph.electrical.abstract.dac;strokeColor=#000000;fontFamily=Helvetica;fontSize=12;fontColor=default;fontStyle=1;fillColor=#fff2cc;" vertex="1" parent="1">
          <mxGeometry x="100" y="183" width="20" height="16" as="geometry" />
        </mxCell>
        <mxCell id="4IxU_vfAgLmW3s3N1iWv-10" value="" style="verticalLabelPosition=bottom;shadow=0;dashed=0;align=center;html=1;verticalAlign=top;shape=mxgraph.electrical.abstract.dac;strokeColor=#000000;fontFamily=Helvetica;fontSize=12;fontColor=default;fontStyle=1;fillColor=#fff2cc;" vertex="1" parent="1">
          <mxGeometry x="710" y="304" width="20" height="16" as="geometry" />
        </mxCell>
        <mxCell id="4IxU_vfAgLmW3s3N1iWv-11" value="&lt;span style=&quot;color: rgba(0, 0, 0, 0); font-family: monospace; font-size: 0px; font-weight: 400; text-align: start;&quot;&gt;%3CmxGraphModel%3E%3Croot%3E%3CmxCell%20id%3D%220%22%2F%3E%3CmxCell%20id%3D%221%22%20parent%3D%220%22%2F%3E%3CmxCell%20id%3D%222%22%20value%3D%22%22%20style%3D%22verticalLabelPosition%3Dbottom%3Bshadow%3D0%3Bdashed%3D0%3Balign%3Dcenter%3Bhtml%3D1%3BverticalAlign%3Dtop%3Bshape%3Dmxgraph.electrical.abstract.dac%3BstrokeColor%3D%23000000%3BfontFamily%3DHelvetica%3BfontSize%3D12%3BfontColor%3Ddefault%3BfontStyle%3D1%3BfillColor%3D%23fff2cc%3B%22%20vertex%3D%221%22%20parent%3D%221%22%3E%3CmxGeometry%20x%3D%2280%22%20y%3D%22107%22%20width%3D%2220%22%20height%3D%2216%22%20as%3D%22geometry%22%2F%3E%3C%2FmxCell%3E%3C%2Froot%3E%3C%2FmxGraphModel%3E&lt;/span&gt;&lt;span style=&quot;color: rgba(0, 0, 0, 0); font-family: monospace; font-size: 0px; font-weight: 400; text-align: start;&quot;&gt;%3CmxGraphModel%3E%3Croot%3E%3CmxCell%20id%3D%220%22%2F%3E%3CmxCell%20id%3D%221%22%20parent%3D%220%22%2F%3E%3CmxCell%20id%3D%222%22%20value%3D%22%22%20style%3D%22verticalLabelPosition%3Dbottom%3Bshadow%3D0%3Bdashed%3D0%3Balign%3Dcenter%3Bhtml%3D1%3BverticalAlign%3Dtop%3Bshape%3Dmxgraph.electrical.abstract.dac%3BstrokeColor%3D%23000000%3BfontFamily%3DHelvetica%3BfontSize%3D12%3BfontColor%3Ddefault%3BfontStyle%3D1%3BfillColor%3D%23fff2cc%3B%22%20vertex%3D%221%22%20parent%3D%221%22%3E%3CmxGeometry%20x%3D%2280%22%20y%3D%22107%22%20width%3D%2220%22%20height%3D%2216%22%20as%3D%22geometry%22%2F%3E%3C%2FmxCell%3E%3C%2Froot%3E%3C%2FmxGraphModel%3E&lt;/span&gt;&lt;span style=&quot;color: rgba(0, 0, 0, 0); font-family: monospace; font-size: 0px; font-weight: 400; text-align: start;&quot;&gt;%3CmxGraphModel%3E%3Croot%3E%3CmxCell%20id%3D%220%22%2F%3E%3CmxCell%20id%3D%221%22%20parent%3D%220%22%2F%3E%3CmxCell%20id%3D%222%22%20value%3D%22%22%20style%3D%22verticalLabelPosition%3Dbottom%3Bshadow%3D0%3Bdashed%3D0%3Balign%3Dcenter%3Bhtml%3D1%3BverticalAlign%3Dtop%3Bshape%3Dmxgraph.electrical.abstract.dac%3BstrokeColor%3D%23000000%3BfontFamily%3DHelvetica%3BfontSize%3D12%3BfontColor%3Ddefault%3BfontStyle%3D1%3BfillColor%3D%23fff2cc%3B%22%20vertex%3D%221%22%20parent%3D%221%22%3E%3CmxGeometry%20x%3D%2280%22%20y%3D%22107%22%20width%3D%2220%22%20height%3D%2216%22%20as%3D%22geometry%22%2F%3E%3C%2FmxCell%3E%3C%2Froot%3E%3C%2FmxGraphModel%3E&lt;/span&gt;&lt;span style=&quot;color: rgba(0, 0, 0, 0); font-family: monospace; font-size: 0px; font-weight: 400; text-align: start;&quot;&gt;%3CmxGraphModel%3E%3Croot%3E%3CmxCell%20id%3D%220%22%2F%3E%3CmxCell%20id%3D%221%22%20parent%3D%220%22%2F%3E%3CmxCell%20id%3D%222%22%20value%3D%22%22%20style%3D%22verticalLabelPosition%3Dbottom%3Bshadow%3D0%3Bdashed%3D0%3Balign%3Dcenter%3Bhtml%3D1%3BverticalAlign%3Dtop%3Bshape%3Dmxgraph.electrical.abstract.dac%3BstrokeColor%3D%23000000%3BfontFamily%3DHelvetica%3BfontSize%3D12%3BfontColor%3Ddefault%3BfontStyle%3D1%3BfillColor%3D%23fff2cc%3B%22%20vertex%3D%221%22%20parent%3D%221%22%3E%3CmxGeometry%20x%3D%2280%22%20y%3D%22107%22%20width%3D%2220%22%20height%3D%2216%22%20as%3D%22geometry%22%2F%3E%3C%2FmxCell%3E%3C%2Froot%3E%3C%2FmxGraphModel%3E&lt;/span&gt;&lt;span style=&quot;color: rgba(0, 0, 0, 0); font-family: monospace; font-size: 0px; font-weight: 400; text-align: start;&quot;&gt;%3CmxGraphModel%3E%3Croot%3E%3CmxCell%20id%3D%220%22%2F%3E%3CmxCell%20id%3D%221%22%20parent%3D%220%22%2F%3E%3CmxCell%20id%3D%222%22%20value%3D%22%22%20style%3D%22verticalLabelPosition%3Dbottom%3Bshadow%3D0%3Bdashed%3D0%3Balign%3Dcenter%3Bhtml%3D1%3BverticalAlign%3Dtop%3Bshape%3Dmxgraph.electrical.abstract.dac%3BstrokeColor%3D%23000000%3BfontFamily%3DHelvetica%3BfontSize%3D12%3BfontColor%3Ddefault%3BfontStyle%3D1%3BfillColor%3D%23fff2cc%3B%22%20vertex%3D%221%22%20parent%3D%221%22%3E%3CmxGeometry%20x%3D%2280%22%20y%3D%22107%22%20width%3D%2220%22%20height%3D%2216%22%20as%3D%22geometry%22%2F%3E%3C%2FmxCell%3E%3C%2Froot%3E%3C%2FmxGraphModel%3E&lt;/span&gt;&lt;span style=&quot;color: rgba(0, 0, 0, 0); font-family: monospace; font-size: 0px; font-weight: 400; text-align: start;&quot;&gt;%3CmxGraphModel%3E%3Croot%3E%3CmxCell%20id%3D%220%22%2F%3E%3CmxCell%20id%3D%221%22%20parent%3D%220%22%2F%3E%3CmxCell%20id%3D%222%22%20value%3D%22%22%20style%3D%22verticalLabelPosition%3Dbottom%3Bshadow%3D0%3Bdashed%3D0%3Balign%3Dcenter%3Bhtml%3D1%3BverticalAlign%3Dtop%3Bshape%3Dmxgraph.electrical.abstract.dac%3BstrokeColor%3D%23000000%3BfontFamily%3DHelvetica%3BfontSize%3D12%3BfontColor%3Ddefault%3BfontStyle%3D1%3BfillColor%3D%23fff2cc%3B%22%20vertex%3D%221%22%20parent%3D%221%22%3E%3CmxGeometry%20x%3D%2280%22%20y%3D%22107%22%20width%3D%2220%22%20height%3D%2216%22%20as%3D%22geometry%22%2F%3E%3C%2FmxCell%3E%3C%2Froot%3E%3C%2FmxGraphModel%3E&lt;/span&gt;&lt;span style=&quot;color: rgba(0, 0, 0, 0); font-family: monospace; font-size: 0px; font-weight: 400; text-align: start;&quot;&gt;%3CmxGraphModel%3E%3Croot%3E%3CmxCell%20id%3D%220%22%2F%3E%3CmxCell%20id%3D%221%22%20parent%3D%220%22%2F%3E%3CmxCell%20id%3D%222%22%20value%3D%22%22%20style%3D%22verticalLabelPosition%3Dbottom%3Bshadow%3D0%3Bdashed%3D0%3Balign%3Dcenter%3Bhtml%3D1%3BverticalAlign%3Dtop%3Bshape%3Dmxgraph.electrical.abstract.dac%3BstrokeColor%3D%23000000%3BfontFamily%3DHelvetica%3BfontSize%3D12%3BfontColor%3Ddefault%3BfontStyle%3D1%3BfillColor%3D%23fff2cc%3B%22%20vertex%3D%221%22%20parent%3D%221%22%3E%3CmxGeometry%20x%3D%2280%22%20y%3D%22107%22%20width%3D%2220%22%20height%3D%2216%22%20as%3D%22geometry%22%2F%3E%3C%2FmxCell%3E%3C%2Froot%3E%3C%2FmxGraphModel%3E&lt;/span&gt;&lt;span style=&quot;color: rgba(0, 0, 0, 0); font-family: monospace; font-size: 0px; font-weight: 400; text-align: start;&quot;&gt;%3CmxGraphModel%3E%3Croot%3E%3CmxCell%20id%3D%220%22%2F%3E%3CmxCell%20id%3D%221%22%20parent%3D%220%22%2F%3E%3CmxCell%20id%3D%222%22%20value%3D%22%22%20style%3D%22verticalLabelPosition%3Dbottom%3Bshadow%3D0%3Bdashed%3D0%3Balign%3Dcenter%3Bhtml%3D1%3BverticalAlign%3Dtop%3Bshape%3Dmxgraph.electrical.abstract.dac%3BstrokeColor%3D%23000000%3BfontFamily%3DHelvetica%3BfontSize%3D12%3BfontColor%3Ddefault%3BfontStyle%3D1%3BfillColor%3D%23fff2cc%3B%22%20vertex%3D%221%22%20parent%3D%221%22%3E%3CmxGeometry%20x%3D%2280%22%20y%3D%22107%22%20width%3D%2220%22%20height%3D%2216%22%20as%3D%22geometry%22%2F%3E%3C%2FmxCell%3E%3C%2Froot%3E%3C%2FmxGraphModel%3E&lt;/span&gt;" style="verticalLabelPosition=bottom;shadow=0;dashed=0;align=center;html=1;verticalAlign=top;shape=mxgraph.electrical.abstract.dac;strokeColor=#000000;fontFamily=Helvetica;fontSize=12;fontColor=default;fontStyle=1;fillColor=#fff2cc;" vertex="1" parent="1">
          <mxGeometry x="700" y="130" width="20" height="16" as="geometry" />
        </mxCell>
        <mxCell id="4IxU_vfAgLmW3s3N1iWv-12" value="" style="verticalLabelPosition=bottom;shadow=0;dashed=0;align=center;html=1;verticalAlign=top;shape=mxgraph.electrical.abstract.dac;strokeColor=#000000;fontFamily=Helvetica;fontSize=12;fontColor=default;fontStyle=1;fillColor=#fff2cc;" vertex="1" parent="1">
          <mxGeometry x="100" y="297" width="20" height="16" as="geometry" />
        </mxCell>
        <mxCell id="4IxU_vfAgLmW3s3N1iWv-13" value="" style="endArrow=none;html=1;strokeWidth=1;rounded=0;fontFamily=Helvetica;fontSize=12;fontColor=default;fontStyle=1;exitDx=0;exitDy=0;entryX=0;entryY=0.75;entryDx=0;entryDy=0;" edge="1" parent="1" source="4IxU_vfAgLmW3s3N1iWv-67" target="4IxU_vfAgLmW3s3N1iWv-2">
          <mxGeometry width="100" relative="1" as="geometry">
            <mxPoint x="370" y="250" as="sourcePoint" />
            <mxPoint x="470" y="250" as="targetPoint" />
            <Array as="points">
              <mxPoint x="280" y="95" />
              <mxPoint x="280" y="325" />
            </Array>
          </mxGeometry>
        </mxCell>
        <mxCell id="4IxU_vfAgLmW3s3N1iWv-14" value="" style="endArrow=none;html=1;strokeWidth=1;rounded=0;fontFamily=Helvetica;fontSize=12;fontColor=default;fontStyle=1;exitX=1;exitY=0.5;exitDx=0;exitDy=0;exitPerimeter=0;entryX=0;entryY=0.5;entryDx=0;entryDy=0;" edge="1" parent="1" source="4IxU_vfAgLmW3s3N1iWv-12" target="4IxU_vfAgLmW3s3N1iWv-5">
          <mxGeometry width="100" relative="1" as="geometry">
            <mxPoint x="370" y="250" as="sourcePoint" />
            <mxPoint x="470" y="250" as="targetPoint" />
          </mxGeometry>
        </mxCell>
        <mxCell id="4IxU_vfAgLmW3s3N1iWv-15" value="" style="endArrow=none;html=1;strokeWidth=1;rounded=0;fontFamily=Helvetica;fontSize=12;fontColor=default;fontStyle=1;exitX=1;exitY=0.5;exitDx=0;exitDy=0;exitPerimeter=0;entryX=0;entryY=0.5;entryDx=0;entryDy=0;" edge="1" parent="1" source="4IxU_vfAgLmW3s3N1iWv-9" target="4IxU_vfAgLmW3s3N1iWv-4">
          <mxGeometry width="100" relative="1" as="geometry">
            <mxPoint x="370" y="250" as="sourcePoint" />
            <mxPoint x="470" y="250" as="targetPoint" />
          </mxGeometry>
        </mxCell>
        <mxCell id="4IxU_vfAgLmW3s3N1iWv-16" value="" style="endArrow=none;html=1;strokeWidth=1;rounded=0;fontFamily=Helvetica;fontSize=12;fontColor=default;fontStyle=1;exitX=1;exitY=0.5;exitDx=0;exitDy=0;exitPerimeter=0;entryX=0;entryY=0.5;entryDx=0;entryDy=0;" edge="1" parent="1" source="4IxU_vfAgLmW3s3N1iWv-8" target="4IxU_vfAgLmW3s3N1iWv-3">
          <mxGeometry width="100" relative="1" as="geometry">
            <mxPoint x="370" y="250" as="sourcePoint" />
            <mxPoint x="470" y="250" as="targetPoint" />
          </mxGeometry>
        </mxCell>
        <mxCell id="4IxU_vfAgLmW3s3N1iWv-18" value="" style="endArrow=none;html=1;strokeWidth=1;rounded=0;fontFamily=Helvetica;fontSize=12;fontColor=default;fontStyle=1;entryX=0;entryY=0.75;entryDx=0;entryDy=0;exitX=1;exitY=0.5;exitDx=0;exitDy=0;" edge="1" parent="1" source="4IxU_vfAgLmW3s3N1iWv-5" target="4IxU_vfAgLmW3s3N1iWv-1">
          <mxGeometry width="100" relative="1" as="geometry">
            <mxPoint x="320" y="300" as="sourcePoint" />
            <mxPoint x="470" y="250" as="targetPoint" />
            <Array as="points">
              <mxPoint x="320" y="305" />
              <mxPoint x="320" y="160" />
            </Array>
          </mxGeometry>
        </mxCell>
        <mxCell id="4IxU_vfAgLmW3s3N1iWv-19" value="" style="endArrow=none;html=1;strokeWidth=1;rounded=0;fontFamily=Helvetica;fontSize=12;fontColor=default;fontStyle=1;entryX=0;entryY=0.25;entryDx=0;entryDy=0;" edge="1" parent="1" target="4IxU_vfAgLmW3s3N1iWv-1">
          <mxGeometry width="100" relative="1" as="geometry">
            <mxPoint x="280" y="116" as="sourcePoint" />
            <mxPoint x="470" y="250" as="targetPoint" />
          </mxGeometry>
        </mxCell>
        <mxCell id="4IxU_vfAgLmW3s3N1iWv-21" value="" style="endArrow=none;html=1;strokeWidth=1;rounded=0;fontFamily=Helvetica;fontSize=12;fontColor=default;fontStyle=1;exitDx=0;exitDy=0;entryX=0;entryY=0.25;entryDx=0;entryDy=0;" edge="1" parent="1" source="4IxU_vfAgLmW3s3N1iWv-69" target="4IxU_vfAgLmW3s3N1iWv-2">
          <mxGeometry width="100" relative="1" as="geometry">
            <mxPoint x="370" y="250" as="sourcePoint" />
            <mxPoint x="470" y="250" as="targetPoint" />
            <Array as="points">
              <mxPoint x="370" y="190" />
              <mxPoint x="370" y="295" />
            </Array>
          </mxGeometry>
        </mxCell>
        <mxCell id="4IxU_vfAgLmW3s3N1iWv-22" value="" style="endArrow=none;html=1;strokeWidth=1;rounded=0;fontFamily=Helvetica;fontSize=12;fontColor=default;fontStyle=1;exitX=0;exitY=0.5;exitDx=0;exitDy=0;exitPerimeter=0;entryX=1;entryY=0.5;entryDx=0;entryDy=0;" edge="1" parent="1" source="4IxU_vfAgLmW3s3N1iWv-11" target="4IxU_vfAgLmW3s3N1iWv-7">
          <mxGeometry width="100" relative="1" as="geometry">
            <mxPoint x="370" y="250" as="sourcePoint" />
            <mxPoint x="470" y="250" as="targetPoint" />
          </mxGeometry>
        </mxCell>
        <mxCell id="4IxU_vfAgLmW3s3N1iWv-23" value="" style="endArrow=none;html=1;strokeWidth=1;rounded=0;fontFamily=Helvetica;fontSize=12;fontColor=default;fontStyle=1;entryX=0;entryY=0.5;entryDx=0;entryDy=0;entryPerimeter=0;exitX=1;exitY=0.5;exitDx=0;exitDy=0;" edge="1" parent="1" source="4IxU_vfAgLmW3s3N1iWv-6" target="4IxU_vfAgLmW3s3N1iWv-10">
          <mxGeometry width="100" relative="1" as="geometry">
            <mxPoint x="370" y="250" as="sourcePoint" />
            <mxPoint x="470" y="250" as="targetPoint" />
          </mxGeometry>
        </mxCell>
        <mxCell id="4IxU_vfAgLmW3s3N1iWv-24" value="" style="endArrow=none;html=1;strokeWidth=1;rounded=0;fontFamily=Helvetica;fontSize=12;fontColor=default;fontStyle=1;entryX=0;entryY=0.5;entryDx=0;entryDy=0;" edge="1" parent="1" target="4IxU_vfAgLmW3s3N1iWv-1">
          <mxGeometry width="100" relative="1" as="geometry">
            <mxPoint x="340" y="190" as="sourcePoint" />
            <mxPoint x="470" y="250" as="targetPoint" />
            <Array as="points">
              <mxPoint x="340" y="138" />
            </Array>
          </mxGeometry>
        </mxCell>
        <mxCell id="4IxU_vfAgLmW3s3N1iWv-25" value="" style="endArrow=none;html=1;strokeWidth=1;rounded=0;fontFamily=Helvetica;fontSize=12;fontColor=default;fontStyle=1;entryX=0;entryY=0.5;entryDx=0;entryDy=0;exitX=1;exitY=0.5;exitDx=0;exitDy=0;" edge="1" parent="1" source="4IxU_vfAgLmW3s3N1iWv-1" target="4IxU_vfAgLmW3s3N1iWv-7">
          <mxGeometry width="100" relative="1" as="geometry">
            <mxPoint x="370" y="250" as="sourcePoint" />
            <mxPoint x="470" y="250" as="targetPoint" />
          </mxGeometry>
        </mxCell>
        <mxCell id="4IxU_vfAgLmW3s3N1iWv-26" value="" style="endArrow=none;html=1;strokeWidth=1;rounded=0;fontFamily=Helvetica;fontSize=12;fontColor=default;fontStyle=1;entryX=0;entryY=0.5;entryDx=0;entryDy=0;exitX=1;exitY=0.5;exitDx=0;exitDy=0;" edge="1" parent="1" source="4IxU_vfAgLmW3s3N1iWv-2" target="4IxU_vfAgLmW3s3N1iWv-6">
          <mxGeometry width="100" relative="1" as="geometry">
            <mxPoint x="370" y="250" as="sourcePoint" />
            <mxPoint x="470" y="250" as="targetPoint" />
          </mxGeometry>
        </mxCell>
        <mxCell id="4IxU_vfAgLmW3s3N1iWv-27" value="x" style="text;html=1;align=center;verticalAlign=middle;resizable=0;points=[];autosize=1;strokeColor=none;fillColor=none;fontFamily=Helvetica;fontSize=12;fontColor=default;fontStyle=1;" vertex="1" parent="1">
          <mxGeometry x="715" y="128" width="30" height="30" as="geometry" />
        </mxCell>
        <mxCell id="4IxU_vfAgLmW3s3N1iWv-28" value="y" style="text;html=1;align=center;verticalAlign=middle;resizable=0;points=[];autosize=1;strokeColor=none;fillColor=none;fontFamily=Helvetica;fontSize=12;fontColor=default;fontStyle=1;" vertex="1" parent="1">
          <mxGeometry x="725" y="298" width="30" height="30" as="geometry" />
        </mxCell>
        <mxCell id="4IxU_vfAgLmW3s3N1iWv-29" value="c" style="text;html=1;align=center;verticalAlign=middle;resizable=0;points=[];autosize=1;strokeColor=none;fillColor=none;fontFamily=Helvetica;fontSize=12;fontColor=default;fontStyle=1;" vertex="1" parent="1">
          <mxGeometry x="75" y="288" width="30" height="30" as="geometry" />
        </mxCell>
        <mxCell id="4IxU_vfAgLmW3s3N1iWv-30" value="a" style="text;html=1;align=center;verticalAlign=middle;resizable=0;points=[];autosize=1;strokeColor=none;fillColor=none;fontFamily=Helvetica;fontSize=12;fontColor=default;fontStyle=1;" vertex="1" parent="1">
          <mxGeometry x="65" y="178" width="30" height="30" as="geometry" />
        </mxCell>
        <mxCell id="4IxU_vfAgLmW3s3N1iWv-32" value="b" style="text;html=1;align=center;verticalAlign=middle;resizable=0;points=[];autosize=1;strokeColor=none;fillColor=none;fontFamily=Helvetica;fontSize=12;fontColor=default;fontStyle=1;" vertex="1" parent="1">
          <mxGeometry x="65" y="88" width="30" height="30" as="geometry" />
        </mxCell>
        <mxCell id="4IxU_vfAgLmW3s3N1iWv-33" value="I" style="text;html=1;align=center;verticalAlign=middle;resizable=0;points=[];autosize=1;strokeColor=none;fillColor=none;fontFamily=Helvetica;fontSize=12;fontColor=default;fontStyle=1;" vertex="1" parent="1">
          <mxGeometry x="155" y="68" width="30" height="30" as="geometry" />
        </mxCell>
        <mxCell id="4IxU_vfAgLmW3s3N1iWv-34" value="I" style="text;html=1;align=center;verticalAlign=middle;resizable=0;points=[];autosize=1;strokeColor=none;fillColor=none;fontFamily=Helvetica;fontSize=12;fontColor=default;fontStyle=1;" vertex="1" parent="1">
          <mxGeometry x="165" y="168" width="30" height="30" as="geometry" />
        </mxCell>
        <mxCell id="4IxU_vfAgLmW3s3N1iWv-35" value="I" style="text;html=1;align=center;verticalAlign=middle;resizable=0;points=[];autosize=1;strokeColor=none;fillColor=none;fontFamily=Helvetica;fontSize=12;fontColor=default;fontStyle=1;" vertex="1" parent="1">
          <mxGeometry x="155" y="268" width="30" height="30" as="geometry" />
        </mxCell>
        <mxCell id="4IxU_vfAgLmW3s3N1iWv-36" value="b_IBUF_inst" style="text;html=1;align=center;verticalAlign=middle;resizable=0;points=[];autosize=1;strokeColor=none;fillColor=none;fontFamily=Helvetica;fontSize=12;fontColor=default;fontStyle=1;" vertex="1" parent="1">
          <mxGeometry x="165" y="48" width="90" height="30" as="geometry" />
        </mxCell>
        <mxCell id="4IxU_vfAgLmW3s3N1iWv-37" value="o" style="text;html=1;align=center;verticalAlign=middle;resizable=0;points=[];autosize=1;strokeColor=none;fillColor=none;fontFamily=Helvetica;fontSize=12;fontColor=default;fontStyle=1;" vertex="1" parent="1">
          <mxGeometry x="245" y="68" width="30" height="30" as="geometry" />
        </mxCell>
        <mxCell id="4IxU_vfAgLmW3s3N1iWv-38" value="o" style="text;html=1;align=center;verticalAlign=middle;resizable=0;points=[];autosize=1;strokeColor=none;fillColor=none;fontFamily=Helvetica;fontSize=12;fontColor=default;fontStyle=1;" vertex="1" parent="1">
          <mxGeometry x="235" y="168" width="30" height="30" as="geometry" />
        </mxCell>
        <mxCell id="4IxU_vfAgLmW3s3N1iWv-41" value="o" style="text;html=1;align=center;verticalAlign=middle;resizable=0;points=[];autosize=1;strokeColor=none;fillColor=none;fontFamily=Helvetica;fontSize=12;fontColor=default;fontStyle=1;" vertex="1" parent="1">
          <mxGeometry x="235" y="278" width="30" height="30" as="geometry" />
        </mxCell>
        <mxCell id="4IxU_vfAgLmW3s3N1iWv-42" value="a_IBUF_inst" style="text;html=1;align=center;verticalAlign=middle;resizable=0;points=[];autosize=1;strokeColor=none;fillColor=none;fontFamily=Helvetica;fontSize=12;fontColor=default;fontStyle=1;" vertex="1" parent="1">
          <mxGeometry x="145" y="138" width="90" height="30" as="geometry" />
        </mxCell>
        <mxCell id="4IxU_vfAgLmW3s3N1iWv-43" value="c_IBUF_inst" style="text;html=1;align=center;verticalAlign=middle;resizable=0;points=[];autosize=1;strokeColor=none;fillColor=none;fontFamily=Helvetica;fontSize=12;fontColor=default;fontStyle=1;" vertex="1" parent="1">
          <mxGeometry x="155" y="258" width="90" height="30" as="geometry" />
        </mxCell>
        <mxCell id="4IxU_vfAgLmW3s3N1iWv-44" value="IBUF" style="text;html=1;align=center;verticalAlign=middle;resizable=0;points=[];autosize=1;strokeColor=none;fillColor=none;fontFamily=Helvetica;fontSize=12;fontColor=default;fontStyle=1;" vertex="1" parent="1">
          <mxGeometry x="195" y="108" width="50" height="30" as="geometry" />
        </mxCell>
        <mxCell id="4IxU_vfAgLmW3s3N1iWv-45" value="IBUF" style="text;html=1;align=center;verticalAlign=middle;resizable=0;points=[];autosize=1;strokeColor=none;fillColor=none;fontFamily=Helvetica;fontSize=12;fontColor=default;fontStyle=1;" vertex="1" parent="1">
          <mxGeometry x="195" y="198" width="50" height="30" as="geometry" />
        </mxCell>
        <mxCell id="4IxU_vfAgLmW3s3N1iWv-46" value="IBUF" style="text;html=1;align=center;verticalAlign=middle;resizable=0;points=[];autosize=1;strokeColor=none;fillColor=none;fontFamily=Helvetica;fontSize=12;fontColor=default;fontStyle=1;" vertex="1" parent="1">
          <mxGeometry x="185" y="318" width="50" height="30" as="geometry" />
        </mxCell>
        <mxCell id="4IxU_vfAgLmW3s3N1iWv-47" value="x_OBUF_insta_i_1" style="text;html=1;align=center;verticalAlign=middle;resizable=0;points=[];autosize=1;strokeColor=none;fillColor=none;fontFamily=Helvetica;fontSize=12;fontColor=default;fontStyle=1;" vertex="1" parent="1">
          <mxGeometry x="380" y="68" width="120" height="30" as="geometry" />
        </mxCell>
        <mxCell id="4IxU_vfAgLmW3s3N1iWv-48" value="I0" style="text;html=1;align=center;verticalAlign=middle;resizable=0;points=[];autosize=1;strokeColor=none;fillColor=none;fontFamily=Helvetica;fontSize=12;fontColor=default;fontStyle=1;" vertex="1" parent="1">
          <mxGeometry x="410" y="93" width="30" height="30" as="geometry" />
        </mxCell>
        <mxCell id="4IxU_vfAgLmW3s3N1iWv-50" value="I2" style="text;html=1;align=center;verticalAlign=middle;resizable=0;points=[];autosize=1;strokeColor=none;fillColor=none;fontFamily=Helvetica;fontSize=12;fontColor=default;fontStyle=1;" vertex="1" parent="1">
          <mxGeometry x="410" y="158" width="30" height="30" as="geometry" />
        </mxCell>
        <mxCell id="4IxU_vfAgLmW3s3N1iWv-51" value="I1" style="text;html=1;align=center;verticalAlign=middle;resizable=0;points=[];autosize=1;strokeColor=none;fillColor=none;fontFamily=Helvetica;fontSize=12;fontColor=default;fontStyle=1;" vertex="1" parent="1">
          <mxGeometry x="410" y="128" width="30" height="30" as="geometry" />
        </mxCell>
        <mxCell id="4IxU_vfAgLmW3s3N1iWv-52" value="O" style="text;html=1;align=center;verticalAlign=middle;resizable=0;points=[];autosize=1;strokeColor=none;fillColor=none;fontFamily=Helvetica;fontSize=12;fontColor=default;fontStyle=1;" vertex="1" parent="1">
          <mxGeometry x="450" y="123" width="30" height="30" as="geometry" />
        </mxCell>
        <mxCell id="4IxU_vfAgLmW3s3N1iWv-53" value="I0" style="text;html=1;align=center;verticalAlign=middle;resizable=0;points=[];autosize=1;strokeColor=none;fillColor=none;fontFamily=Helvetica;fontSize=12;fontColor=default;fontStyle=1;" vertex="1" parent="1">
          <mxGeometry x="420" y="280" width="30" height="30" as="geometry" />
        </mxCell>
        <mxCell id="4IxU_vfAgLmW3s3N1iWv-54" value="I1" style="text;html=1;align=center;verticalAlign=middle;resizable=0;points=[];autosize=1;strokeColor=none;fillColor=none;fontFamily=Helvetica;fontSize=12;fontColor=default;fontStyle=1;" vertex="1" parent="1">
          <mxGeometry x="420" y="313" width="30" height="30" as="geometry" />
        </mxCell>
        <mxCell id="4IxU_vfAgLmW3s3N1iWv-55" value="O" style="text;html=1;align=center;verticalAlign=middle;resizable=0;points=[];autosize=1;strokeColor=none;fillColor=none;fontFamily=Helvetica;fontSize=12;fontColor=default;fontStyle=1;" vertex="1" parent="1">
          <mxGeometry x="480" y="295" width="30" height="30" as="geometry" />
        </mxCell>
        <mxCell id="4IxU_vfAgLmW3s3N1iWv-56" value="LUT 3" style="text;html=1;align=center;verticalAlign=middle;resizable=0;points=[];autosize=1;strokeColor=none;fillColor=none;fontFamily=Helvetica;fontSize=12;fontColor=default;fontStyle=1;" vertex="1" parent="1">
          <mxGeometry x="410" y="188" width="60" height="30" as="geometry" />
        </mxCell>
        <mxCell id="4IxU_vfAgLmW3s3N1iWv-57" value="LUT 2" style="text;html=1;align=center;verticalAlign=middle;resizable=0;points=[];autosize=1;strokeColor=none;fillColor=none;fontFamily=Helvetica;fontSize=12;fontColor=default;fontStyle=1;" vertex="1" parent="1">
          <mxGeometry x="420" y="338" width="60" height="30" as="geometry" />
        </mxCell>
        <mxCell id="4IxU_vfAgLmW3s3N1iWv-58" value="y_OBUF_inst_i_1" style="text;html=1;align=center;verticalAlign=middle;resizable=0;points=[];autosize=1;strokeColor=none;fillColor=none;fontFamily=Helvetica;fontSize=12;fontColor=default;fontStyle=1;" vertex="1" parent="1">
          <mxGeometry x="380" y="248" width="120" height="30" as="geometry" />
        </mxCell>
        <mxCell id="4IxU_vfAgLmW3s3N1iWv-59" value="I" style="text;html=1;align=center;verticalAlign=middle;resizable=0;points=[];autosize=1;strokeColor=none;fillColor=none;fontFamily=Helvetica;fontSize=12;fontColor=default;fontStyle=1;" vertex="1" parent="1">
          <mxGeometry x="555" y="108" width="30" height="30" as="geometry" />
        </mxCell>
        <mxCell id="4IxU_vfAgLmW3s3N1iWv-60" value="I" style="text;html=1;align=center;verticalAlign=middle;resizable=0;points=[];autosize=1;strokeColor=none;fillColor=none;fontFamily=Helvetica;fontSize=12;fontColor=default;fontStyle=1;" vertex="1" parent="1">
          <mxGeometry x="565" y="288" width="30" height="30" as="geometry" />
        </mxCell>
        <mxCell id="4IxU_vfAgLmW3s3N1iWv-61" value="x_OBUF_inst" style="text;html=1;align=center;verticalAlign=middle;resizable=0;points=[];autosize=1;strokeColor=none;fillColor=none;fontFamily=Helvetica;fontSize=12;fontColor=default;fontStyle=1;" vertex="1" parent="1">
          <mxGeometry x="575" y="88" width="90" height="30" as="geometry" />
        </mxCell>
        <mxCell id="4IxU_vfAgLmW3s3N1iWv-62" value="O" style="text;html=1;align=center;verticalAlign=middle;resizable=0;points=[];autosize=1;strokeColor=none;fillColor=none;fontFamily=Helvetica;fontSize=12;fontColor=default;fontStyle=1;" vertex="1" parent="1">
          <mxGeometry x="635" y="118" width="30" height="30" as="geometry" />
        </mxCell>
        <mxCell id="4IxU_vfAgLmW3s3N1iWv-63" value="OBUF" style="text;html=1;align=center;verticalAlign=middle;resizable=0;points=[];autosize=1;strokeColor=none;fillColor=none;fontFamily=Helvetica;fontSize=12;fontColor=default;fontStyle=1;" vertex="1" parent="1">
          <mxGeometry x="590" y="158" width="60" height="30" as="geometry" />
        </mxCell>
        <mxCell id="4IxU_vfAgLmW3s3N1iWv-64" value="y_OBUF_inst" style="text;html=1;align=center;verticalAlign=middle;resizable=0;points=[];autosize=1;strokeColor=none;fillColor=none;fontFamily=Helvetica;fontSize=12;fontColor=default;fontStyle=1;" vertex="1" parent="1">
          <mxGeometry x="555" y="248" width="90" height="30" as="geometry" />
        </mxCell>
        <mxCell id="4IxU_vfAgLmW3s3N1iWv-65" value="O" style="text;html=1;align=center;verticalAlign=middle;resizable=0;points=[];autosize=1;strokeColor=none;fillColor=none;fontFamily=Helvetica;fontSize=12;fontColor=default;fontStyle=1;" vertex="1" parent="1">
          <mxGeometry x="635" y="288" width="30" height="30" as="geometry" />
        </mxCell>
        <mxCell id="4IxU_vfAgLmW3s3N1iWv-66" value="OBUF" style="text;html=1;align=center;verticalAlign=middle;resizable=0;points=[];autosize=1;strokeColor=none;fillColor=none;fontFamily=Helvetica;fontSize=12;fontColor=default;fontStyle=1;" vertex="1" parent="1">
          <mxGeometry x="580" y="328" width="60" height="30" as="geometry" />
        </mxCell>
        <mxCell id="4IxU_vfAgLmW3s3N1iWv-68" value="" style="endArrow=none;html=1;strokeWidth=1;rounded=0;fontFamily=Helvetica;fontSize=12;fontColor=default;fontStyle=1;exitX=1;exitY=0.5;exitDx=0;exitDy=0;entryDx=0;entryDy=0;" edge="1" parent="1" source="4IxU_vfAgLmW3s3N1iWv-3" target="4IxU_vfAgLmW3s3N1iWv-67">
          <mxGeometry width="100" relative="1" as="geometry">
            <mxPoint x="240" y="95" as="sourcePoint" />
            <mxPoint x="420" y="325" as="targetPoint" />
            <Array as="points">
              <mxPoint x="280" y="95" />
            </Array>
          </mxGeometry>
        </mxCell>
        <mxCell id="4IxU_vfAgLmW3s3N1iWv-67" value="" style="shape=waypoint;sketch=0;size=6;pointerEvents=1;points=[];fillColor=none;resizable=0;rotatable=0;perimeter=centerPerimeter;snapToPoint=1;strokeColor=#000000;align=center;verticalAlign=middle;fontFamily=Helvetica;fontSize=12;fontColor=default;fontStyle=1;" vertex="1" parent="1">
          <mxGeometry x="270" y="108" width="20" height="20" as="geometry" />
        </mxCell>
        <mxCell id="4IxU_vfAgLmW3s3N1iWv-70" value="" style="endArrow=none;html=1;strokeWidth=1;rounded=0;fontFamily=Helvetica;fontSize=12;fontColor=default;fontStyle=1;exitX=1;exitY=0.5;exitDx=0;exitDy=0;entryDx=0;entryDy=0;" edge="1" parent="1" source="4IxU_vfAgLmW3s3N1iWv-4" target="4IxU_vfAgLmW3s3N1iWv-69">
          <mxGeometry width="100" relative="1" as="geometry">
            <mxPoint x="240" y="192" as="sourcePoint" />
            <mxPoint x="420" y="295" as="targetPoint" />
            <Array as="points" />
          </mxGeometry>
        </mxCell>
        <mxCell id="4IxU_vfAgLmW3s3N1iWv-69" value="" style="shape=waypoint;sketch=0;size=6;pointerEvents=1;points=[];fillColor=none;resizable=0;rotatable=0;perimeter=centerPerimeter;snapToPoint=1;strokeColor=#000000;align=center;verticalAlign=middle;fontFamily=Helvetica;fontSize=12;fontColor=default;fontStyle=1;" vertex="1" parent="1">
          <mxGeometry x="330" y="181" width="20" height="20" as="geometry" />
        </mxCell>
      </root>
    </mxGraphModel>
  </diagram>
  <diagram id="3LVsGnHAgXqXzjczYlOM" name="Page-2">
    <mxGraphModel grid="1" page="1" gridSize="10" guides="1" tooltips="1" connect="1" arrows="1" fold="1" pageScale="1" pageWidth="850" pageHeight="1100" math="0" shadow="0">
      <root>
        <mxCell id="0" />
        <mxCell id="1" parent="0" />
        <mxCell id="k1nHYCeuwdRHNPCrHHV9-1" value="" style="verticalLabelPosition=bottom;shadow=0;dashed=0;align=center;html=1;verticalAlign=top;shape=mxgraph.electrical.logic_gates.logic_gate;operation=or;strokeColor=#000000;fontFamily=Helvetica;fontSize=12;fontColor=default;fontStyle=1;fillColor=#fff2cc;" vertex="1" parent="1">
          <mxGeometry x="300" y="70" width="80" height="50" as="geometry" />
        </mxCell>
        <mxCell id="k1nHYCeuwdRHNPCrHHV9-4" value="" style="verticalLabelPosition=bottom;shadow=0;dashed=0;align=center;html=1;verticalAlign=top;shape=mxgraph.electrical.logic_gates.logic_gate;operation=xor;strokeColor=#000000;fontFamily=Helvetica;fontSize=12;fontColor=default;fontStyle=1;fillColor=#fff2cc;" vertex="1" parent="1">
          <mxGeometry x="615" y="140" width="90" height="50" as="geometry" />
        </mxCell>
        <mxCell id="k1nHYCeuwdRHNPCrHHV9-7" value="" style="verticalLabelPosition=bottom;shadow=0;dashed=0;align=center;html=1;verticalAlign=top;shape=mxgraph.electrical.logic_gates.logic_gate;operation=and;strokeColor=#000000;fontFamily=Helvetica;fontSize=12;fontColor=default;fontStyle=1;fillColor=#fff2cc;" vertex="1" parent="1">
          <mxGeometry x="610" y="260" width="100" height="60" as="geometry" />
        </mxCell>
        <mxCell id="k1nHYCeuwdRHNPCrHHV9-8" value="" style="verticalLabelPosition=bottom;shadow=0;dashed=0;align=center;html=1;verticalAlign=top;shape=mxgraph.electrical.logic_gates.inverter_2;strokeColor=#000000;fontFamily=Helvetica;fontSize=12;fontColor=default;fontStyle=1;fillColor=#fff2cc;" vertex="1" parent="1">
          <mxGeometry x="290" y="270" width="70" height="50" as="geometry" />
        </mxCell>
        <mxCell id="k1nHYCeuwdRHNPCrHHV9-9" value="" style="verticalLabelPosition=bottom;shadow=0;dashed=0;align=center;html=1;verticalAlign=top;shape=mxgraph.electrical.logic_gates.logic_gate;operation=xor;strokeColor=#000000;fontFamily=Helvetica;fontSize=12;fontColor=default;fontStyle=1;fillColor=#fff2cc;" vertex="1" parent="1">
          <mxGeometry x="470" y="280" width="90" height="50" as="geometry" />
        </mxCell>
        <mxCell id="k1nHYCeuwdRHNPCrHHV9-10" value="" style="verticalLabelPosition=bottom;shadow=0;dashed=0;align=center;html=1;verticalAlign=top;shape=mxgraph.electrical.logic_gates.logic_gate;operation=and;strokeColor=#000000;fontFamily=Helvetica;fontSize=12;fontColor=default;fontStyle=1;fillColor=#fff2cc;" vertex="1" parent="1">
          <mxGeometry x="160" y="275" width="70" height="40" as="geometry" />
        </mxCell>
        <mxCell id="k1nHYCeuwdRHNPCrHHV9-11" value="" style="verticalLabelPosition=bottom;shadow=0;dashed=0;align=center;html=1;verticalAlign=top;shape=mxgraph.electrical.abstract.dac;strokeColor=#000000;fontFamily=Helvetica;fontSize=12;fontColor=default;fontStyle=1;fillColor=#fff2cc;" vertex="1" parent="1">
          <mxGeometry x="70" y="145" width="30" height="20" as="geometry" />
        </mxCell>
        <mxCell id="k1nHYCeuwdRHNPCrHHV9-12" value="" style="verticalLabelPosition=bottom;shadow=0;dashed=0;align=center;html=1;verticalAlign=top;shape=mxgraph.electrical.abstract.dac;strokeColor=#000000;fontFamily=Helvetica;fontSize=12;fontColor=default;fontStyle=1;fillColor=#fff2cc;" vertex="1" parent="1">
          <mxGeometry x="70" y="200" width="30" height="20" as="geometry" />
        </mxCell>
        <mxCell id="k1nHYCeuwdRHNPCrHHV9-13" value="" style="verticalLabelPosition=bottom;shadow=0;dashed=0;align=center;html=1;verticalAlign=top;shape=mxgraph.electrical.abstract.dac;strokeColor=#000000;fontFamily=Helvetica;fontSize=12;fontColor=default;fontStyle=1;fillColor=#fff2cc;" vertex="1" parent="1">
          <mxGeometry x="60" y="255" width="30" height="20" as="geometry" />
        </mxCell>
        <mxCell id="k1nHYCeuwdRHNPCrHHV9-14" value="" style="verticalLabelPosition=bottom;shadow=0;dashed=0;align=center;html=1;verticalAlign=top;shape=mxgraph.electrical.abstract.dac;strokeColor=#000000;fontFamily=Helvetica;fontSize=12;fontColor=default;fontStyle=1;fillColor=#fff2cc;" vertex="1" parent="1">
          <mxGeometry x="750" y="280" width="30" height="20" as="geometry" />
        </mxCell>
        <mxCell id="k1nHYCeuwdRHNPCrHHV9-15" value="" style="verticalLabelPosition=bottom;shadow=0;dashed=0;align=center;html=1;verticalAlign=top;shape=mxgraph.electrical.abstract.dac;strokeColor=#000000;fontFamily=Helvetica;fontSize=12;fontColor=default;fontStyle=1;fillColor=#fff2cc;" vertex="1" parent="1">
          <mxGeometry x="750" y="155" width="30" height="20" as="geometry" />
        </mxCell>
        <mxCell id="k1nHYCeuwdRHNPCrHHV9-21" value="" style="endArrow=none;html=1;strokeWidth=1;rounded=0;fontFamily=Helvetica;fontSize=12;fontColor=default;fontStyle=1;exitX=1;exitY=0.5;exitDx=0;exitDy=0;exitPerimeter=0;entryX=0;entryY=0.25;entryDx=0;entryDy=0;entryPerimeter=0;" edge="1" parent="1" source="k1nHYCeuwdRHNPCrHHV9-11" target="k1nHYCeuwdRHNPCrHHV9-4">
          <mxGeometry width="100" relative="1" as="geometry">
            <mxPoint x="370" y="250" as="sourcePoint" />
            <mxPoint x="470" y="250" as="targetPoint" />
          </mxGeometry>
        </mxCell>
        <mxCell id="k1nHYCeuwdRHNPCrHHV9-23" value="" style="endArrow=none;html=1;strokeWidth=1;rounded=0;fontFamily=Helvetica;fontSize=12;fontColor=default;fontStyle=1;exitX=1;exitY=0.5;exitDx=0;exitDy=0;exitPerimeter=0;entryX=0;entryY=0.5;entryDx=0;entryDy=0;entryPerimeter=0;" edge="1" parent="1" source="k1nHYCeuwdRHNPCrHHV9-10" target="k1nHYCeuwdRHNPCrHHV9-8">
          <mxGeometry width="100" relative="1" as="geometry">
            <mxPoint x="370" y="250" as="sourcePoint" />
            <mxPoint x="470" y="250" as="targetPoint" />
          </mxGeometry>
        </mxCell>
        <mxCell id="k1nHYCeuwdRHNPCrHHV9-24" value="" style="endArrow=none;html=1;strokeWidth=1;rounded=0;fontFamily=Helvetica;fontSize=12;fontColor=default;fontStyle=1;exitX=1;exitY=0.5;exitDx=0;exitDy=0;exitPerimeter=0;entryX=0;entryY=0.25;entryDx=0;entryDy=0;entryPerimeter=0;" edge="1" parent="1" source="k1nHYCeuwdRHNPCrHHV9-8" target="k1nHYCeuwdRHNPCrHHV9-9">
          <mxGeometry width="100" relative="1" as="geometry">
            <mxPoint x="370" y="250" as="sourcePoint" />
            <mxPoint x="470" y="250" as="targetPoint" />
          </mxGeometry>
        </mxCell>
        <mxCell id="k1nHYCeuwdRHNPCrHHV9-25" value="" style="endArrow=none;html=1;strokeWidth=1;rounded=0;fontFamily=Helvetica;fontSize=12;fontColor=default;fontStyle=1;exitDx=0;exitDy=0;exitPerimeter=0;entryX=0;entryY=0.75;entryDx=0;entryDy=0;entryPerimeter=0;" edge="1" parent="1" source="k1nHYCeuwdRHNPCrHHV9-77" target="k1nHYCeuwdRHNPCrHHV9-9">
          <mxGeometry width="100" relative="1" as="geometry">
            <mxPoint x="370" y="250" as="sourcePoint" />
            <mxPoint x="470" y="250" as="targetPoint" />
            <Array as="points">
              <mxPoint x="450" y="95" />
              <mxPoint x="450" y="260" />
              <mxPoint x="450" y="318" />
            </Array>
          </mxGeometry>
        </mxCell>
        <mxCell id="k1nHYCeuwdRHNPCrHHV9-26" value="" style="endArrow=none;html=1;strokeWidth=1;rounded=0;fontFamily=Helvetica;fontSize=12;fontColor=default;fontStyle=1;exitX=1;exitY=0.5;exitDx=0;exitDy=0;exitPerimeter=0;entryX=0;entryY=0.75;entryDx=0;entryDy=0;entryPerimeter=0;" edge="1" parent="1" source="k1nHYCeuwdRHNPCrHHV9-9" target="k1nHYCeuwdRHNPCrHHV9-7">
          <mxGeometry width="100" relative="1" as="geometry">
            <mxPoint x="370" y="250" as="sourcePoint" />
            <mxPoint x="470" y="250" as="targetPoint" />
          </mxGeometry>
        </mxCell>
        <mxCell id="k1nHYCeuwdRHNPCrHHV9-27" value="" style="endArrow=none;html=1;strokeWidth=1;rounded=0;fontFamily=Helvetica;fontSize=12;fontColor=default;fontStyle=1;entryX=0;entryY=0.25;entryDx=0;entryDy=0;entryPerimeter=0;" edge="1" parent="1" source="k1nHYCeuwdRHNPCrHHV9-79" target="k1nHYCeuwdRHNPCrHHV9-7">
          <mxGeometry width="100" relative="1" as="geometry">
            <mxPoint x="450" y="130" as="sourcePoint" />
            <mxPoint x="470" y="250" as="targetPoint" />
            <Array as="points">
              <mxPoint x="570" y="130" />
              <mxPoint x="570" y="275" />
            </Array>
          </mxGeometry>
        </mxCell>
        <mxCell id="k1nHYCeuwdRHNPCrHHV9-28" value="" style="endArrow=none;html=1;strokeWidth=1;rounded=0;fontFamily=Helvetica;fontSize=12;fontColor=default;fontStyle=1;exitX=0;exitY=0.75;exitDx=0;exitDy=0;exitPerimeter=0;" edge="1" parent="1" source="k1nHYCeuwdRHNPCrHHV9-4">
          <mxGeometry width="100" relative="1" as="geometry">
            <mxPoint x="610" y="180" as="sourcePoint" />
            <mxPoint x="570" y="180" as="targetPoint" />
          </mxGeometry>
        </mxCell>
        <mxCell id="k1nHYCeuwdRHNPCrHHV9-29" value="" style="endArrow=none;html=1;strokeWidth=1;rounded=0;fontFamily=Helvetica;fontSize=12;fontColor=default;fontStyle=1;entryX=1;entryY=0.5;entryDx=0;entryDy=0;entryPerimeter=0;exitX=0;exitY=0.5;exitDx=0;exitDy=0;exitPerimeter=0;" edge="1" parent="1" source="k1nHYCeuwdRHNPCrHHV9-15" target="k1nHYCeuwdRHNPCrHHV9-4">
          <mxGeometry width="100" relative="1" as="geometry">
            <mxPoint x="720" y="170" as="sourcePoint" />
            <mxPoint x="470" y="250" as="targetPoint" />
          </mxGeometry>
        </mxCell>
        <mxCell id="k1nHYCeuwdRHNPCrHHV9-30" value="" style="endArrow=none;html=1;strokeWidth=1;rounded=0;fontFamily=Helvetica;fontSize=12;fontColor=default;fontStyle=1;entryX=0;entryY=0.5;entryDx=0;entryDy=0;entryPerimeter=0;" edge="1" parent="1" target="k1nHYCeuwdRHNPCrHHV9-14">
          <mxGeometry width="100" relative="1" as="geometry">
            <mxPoint x="703" y="290" as="sourcePoint" />
            <mxPoint x="470" y="250" as="targetPoint" />
          </mxGeometry>
        </mxCell>
        <mxCell id="k1nHYCeuwdRHNPCrHHV9-31" value="" style="endArrow=none;html=1;strokeWidth=1;rounded=0;fontFamily=Helvetica;fontSize=12;fontColor=default;fontStyle=1;exitX=0;exitY=0.25;exitDx=0;exitDy=0;exitPerimeter=0;entryX=0;entryY=0.25;entryDx=0;entryDy=0;entryPerimeter=0;" edge="1" parent="1" source="k1nHYCeuwdRHNPCrHHV9-1" target="k1nHYCeuwdRHNPCrHHV9-10">
          <mxGeometry width="100" relative="1" as="geometry">
            <mxPoint x="370" y="250" as="sourcePoint" />
            <mxPoint x="470" y="250" as="targetPoint" />
            <Array as="points">
              <mxPoint x="160" y="80" />
            </Array>
          </mxGeometry>
        </mxCell>
        <mxCell id="k1nHYCeuwdRHNPCrHHV9-33" value="" style="endArrow=none;html=1;strokeWidth=1;rounded=0;fontFamily=Helvetica;fontSize=12;fontColor=default;fontStyle=1;exitX=0;exitY=0.75;exitDx=0;exitDy=0;exitPerimeter=0;entryX=0;entryY=0.75;entryDx=0;entryDy=0;entryPerimeter=0;" edge="1" parent="1" source="k1nHYCeuwdRHNPCrHHV9-10" target="k1nHYCeuwdRHNPCrHHV9-1">
          <mxGeometry width="100" relative="1" as="geometry">
            <mxPoint x="370" y="250" as="sourcePoint" />
            <mxPoint x="130" y="210" as="targetPoint" />
            <Array as="points">
              <mxPoint x="130" y="305" />
              <mxPoint x="130" y="108" />
            </Array>
          </mxGeometry>
        </mxCell>
        <mxCell id="k1nHYCeuwdRHNPCrHHV9-34" value="" style="endArrow=none;html=1;strokeWidth=1;rounded=0;fontFamily=Helvetica;fontSize=12;fontColor=default;fontStyle=1;exitDx=0;exitDy=0;exitPerimeter=0;" edge="1" parent="1" source="k1nHYCeuwdRHNPCrHHV9-75">
          <mxGeometry width="100" relative="1" as="geometry">
            <mxPoint x="370" y="250" as="sourcePoint" />
            <mxPoint x="160" y="210" as="targetPoint" />
          </mxGeometry>
        </mxCell>
        <mxCell id="k1nHYCeuwdRHNPCrHHV9-36" value="" style="endArrow=none;html=1;strokeWidth=1;rounded=0;fontFamily=Helvetica;fontSize=12;fontColor=default;fontStyle=1;exitDx=0;exitDy=0;exitPerimeter=0;" edge="1" parent="1" source="k1nHYCeuwdRHNPCrHHV9-73">
          <mxGeometry width="100" relative="1" as="geometry">
            <mxPoint x="370" y="250" as="sourcePoint" />
            <mxPoint x="130" y="265" as="targetPoint" />
          </mxGeometry>
        </mxCell>
        <mxCell id="k1nHYCeuwdRHNPCrHHV9-37" value="c&lt;div&gt;&lt;br&gt;&lt;/div&gt;" style="text;html=1;align=center;verticalAlign=middle;resizable=0;points=[];autosize=1;strokeColor=none;fillColor=none;fontFamily=Helvetica;fontSize=12;fontColor=default;fontStyle=1;" vertex="1" parent="1">
          <mxGeometry x="35" y="133" width="30" height="40" as="geometry" />
        </mxCell>
        <mxCell id="k1nHYCeuwdRHNPCrHHV9-38" value="a" style="text;html=1;align=center;verticalAlign=middle;resizable=0;points=[];autosize=1;strokeColor=none;fillColor=none;fontFamily=Helvetica;fontSize=12;fontColor=default;fontStyle=1;" vertex="1" parent="1">
          <mxGeometry x="35" y="198" width="30" height="30" as="geometry" />
        </mxCell>
        <mxCell id="k1nHYCeuwdRHNPCrHHV9-39" value="b" style="text;html=1;align=center;verticalAlign=middle;resizable=0;points=[];autosize=1;strokeColor=none;fillColor=none;fontFamily=Helvetica;fontSize=12;fontColor=default;fontStyle=1;" vertex="1" parent="1">
          <mxGeometry x="35" y="248" width="30" height="30" as="geometry" />
        </mxCell>
        <mxCell id="k1nHYCeuwdRHNPCrHHV9-40" value="x0_i" style="text;html=1;align=center;verticalAlign=middle;resizable=0;points=[];autosize=1;strokeColor=none;fillColor=none;fontFamily=Helvetica;fontSize=12;fontColor=default;fontStyle=1;" vertex="1" parent="1">
          <mxGeometry x="305" y="38" width="50" height="30" as="geometry" />
        </mxCell>
        <mxCell id="k1nHYCeuwdRHNPCrHHV9-41" value="RTL_OR" style="text;html=1;align=center;verticalAlign=middle;resizable=0;points=[];autosize=1;strokeColor=none;fillColor=none;fontFamily=Helvetica;fontSize=12;fontColor=default;fontStyle=1;" vertex="1" parent="1">
          <mxGeometry x="305" y="118" width="70" height="30" as="geometry" />
        </mxCell>
        <mxCell id="k1nHYCeuwdRHNPCrHHV9-42" value="RTL_INV" style="text;html=1;align=center;verticalAlign=middle;resizable=0;points=[];autosize=1;strokeColor=none;fillColor=none;fontFamily=Helvetica;fontSize=12;fontColor=default;fontStyle=1;" vertex="1" parent="1">
          <mxGeometry x="285" y="318" width="70" height="30" as="geometry" />
        </mxCell>
        <mxCell id="k1nHYCeuwdRHNPCrHHV9-43" value="RTL_AND" style="text;html=1;align=center;verticalAlign=middle;resizable=0;points=[];autosize=1;strokeColor=none;fillColor=none;fontFamily=Helvetica;fontSize=12;fontColor=default;fontStyle=1;" vertex="1" parent="1">
          <mxGeometry x="160" y="328" width="80" height="30" as="geometry" />
        </mxCell>
        <mxCell id="k1nHYCeuwdRHNPCrHHV9-44" value="RTL_XOR" style="text;html=1;align=center;verticalAlign=middle;resizable=0;points=[];autosize=1;strokeColor=none;fillColor=none;fontFamily=Helvetica;fontSize=12;fontColor=default;fontStyle=1;" vertex="1" parent="1">
          <mxGeometry x="470" y="338" width="80" height="30" as="geometry" />
        </mxCell>
        <mxCell id="k1nHYCeuwdRHNPCrHHV9-46" value="RTL_AND" style="text;html=1;align=center;verticalAlign=middle;resizable=0;points=[];autosize=1;strokeColor=none;fillColor=none;fontFamily=Helvetica;fontSize=12;fontColor=default;fontStyle=1;" vertex="1" parent="1">
          <mxGeometry x="620" y="328" width="80" height="30" as="geometry" />
        </mxCell>
        <mxCell id="k1nHYCeuwdRHNPCrHHV9-47" value="RTL_XOR" style="text;html=1;align=center;verticalAlign=middle;resizable=0;points=[];autosize=1;strokeColor=none;fillColor=none;fontFamily=Helvetica;fontSize=12;fontColor=default;fontStyle=1;" vertex="1" parent="1">
          <mxGeometry x="610" y="198" width="80" height="30" as="geometry" />
        </mxCell>
        <mxCell id="k1nHYCeuwdRHNPCrHHV9-48" value="x" style="text;html=1;align=center;verticalAlign=middle;resizable=0;points=[];autosize=1;strokeColor=none;fillColor=none;fontFamily=Helvetica;fontSize=12;fontColor=default;fontStyle=1;" vertex="1" parent="1">
          <mxGeometry x="775" y="148" width="30" height="30" as="geometry" />
        </mxCell>
        <mxCell id="k1nHYCeuwdRHNPCrHHV9-49" value="y" style="text;html=1;align=center;verticalAlign=middle;resizable=0;points=[];autosize=1;strokeColor=none;fillColor=none;fontFamily=Helvetica;fontSize=12;fontColor=default;fontStyle=1;" vertex="1" parent="1">
          <mxGeometry x="775" y="278" width="30" height="30" as="geometry" />
        </mxCell>
        <mxCell id="k1nHYCeuwdRHNPCrHHV9-50" value="I0" style="text;html=1;align=center;verticalAlign=middle;resizable=0;points=[];autosize=1;strokeColor=none;fillColor=none;fontFamily=Helvetica;fontSize=12;fontColor=default;fontStyle=1;" vertex="1" parent="1">
          <mxGeometry x="155" y="258" width="30" height="30" as="geometry" />
        </mxCell>
        <mxCell id="k1nHYCeuwdRHNPCrHHV9-52" value="I1" style="text;html=1;align=center;verticalAlign=middle;resizable=0;points=[];autosize=1;strokeColor=none;fillColor=none;fontFamily=Helvetica;fontSize=12;fontColor=default;fontStyle=1;" vertex="1" parent="1">
          <mxGeometry x="145" y="278" width="30" height="30" as="geometry" />
        </mxCell>
        <mxCell id="k1nHYCeuwdRHNPCrHHV9-53" value="O" style="text;html=1;align=center;verticalAlign=middle;resizable=0;points=[];autosize=1;strokeColor=none;fillColor=none;fontFamily=Helvetica;fontSize=12;fontColor=default;fontStyle=1;" vertex="1" parent="1">
          <mxGeometry x="210" y="270" width="30" height="30" as="geometry" />
        </mxCell>
        <mxCell id="k1nHYCeuwdRHNPCrHHV9-54" value="y2_i" style="text;html=1;align=center;verticalAlign=middle;resizable=0;points=[];autosize=1;strokeColor=none;fillColor=none;fontFamily=Helvetica;fontSize=12;fontColor=default;fontStyle=1;" vertex="1" parent="1">
          <mxGeometry x="165" y="238" width="50" height="30" as="geometry" />
        </mxCell>
        <mxCell id="k1nHYCeuwdRHNPCrHHV9-55" value="I0" style="text;html=1;align=center;verticalAlign=middle;resizable=0;points=[];autosize=1;strokeColor=none;fillColor=none;fontFamily=Helvetica;fontSize=12;fontColor=default;fontStyle=1;" vertex="1" parent="1">
          <mxGeometry x="285" y="58" width="30" height="30" as="geometry" />
        </mxCell>
        <mxCell id="k1nHYCeuwdRHNPCrHHV9-56" value="I1" style="text;html=1;align=center;verticalAlign=middle;resizable=0;points=[];autosize=1;strokeColor=none;fillColor=none;fontFamily=Helvetica;fontSize=12;fontColor=default;fontStyle=1;" vertex="1" parent="1">
          <mxGeometry x="265" y="88" width="30" height="30" as="geometry" />
        </mxCell>
        <mxCell id="k1nHYCeuwdRHNPCrHHV9-57" value="O" style="text;html=1;align=center;verticalAlign=middle;resizable=0;points=[];autosize=1;strokeColor=none;fillColor=none;fontFamily=Helvetica;fontSize=12;fontColor=default;fontStyle=1;" vertex="1" parent="1">
          <mxGeometry x="365" y="68" width="30" height="30" as="geometry" />
        </mxCell>
        <mxCell id="k1nHYCeuwdRHNPCrHHV9-58" value="I0" style="text;html=1;align=center;verticalAlign=middle;resizable=0;points=[];autosize=1;strokeColor=none;fillColor=none;fontFamily=Helvetica;fontSize=12;fontColor=default;fontStyle=1;" vertex="1" parent="1">
          <mxGeometry x="595" y="128" width="30" height="30" as="geometry" />
        </mxCell>
        <mxCell id="k1nHYCeuwdRHNPCrHHV9-59" value="I1" style="text;html=1;align=center;verticalAlign=middle;resizable=0;points=[];autosize=1;strokeColor=none;fillColor=none;fontFamily=Helvetica;fontSize=12;fontColor=default;fontStyle=1;" vertex="1" parent="1">
          <mxGeometry x="575" y="158" width="30" height="30" as="geometry" />
        </mxCell>
        <mxCell id="k1nHYCeuwdRHNPCrHHV9-60" value="O" style="text;html=1;align=center;verticalAlign=middle;resizable=0;points=[];autosize=1;strokeColor=none;fillColor=none;fontFamily=Helvetica;fontSize=12;fontColor=default;fontStyle=1;" vertex="1" parent="1">
          <mxGeometry x="685" y="138" width="30" height="30" as="geometry" />
        </mxCell>
        <mxCell id="k1nHYCeuwdRHNPCrHHV9-61" value="I0" style="text;html=1;align=center;verticalAlign=middle;resizable=0;points=[];autosize=1;strokeColor=none;fillColor=none;fontFamily=Helvetica;fontSize=12;fontColor=default;fontStyle=1;" vertex="1" parent="1">
          <mxGeometry x="595" y="238" width="30" height="30" as="geometry" />
        </mxCell>
        <mxCell id="k1nHYCeuwdRHNPCrHHV9-62" value="I1" style="text;html=1;align=center;verticalAlign=middle;resizable=0;points=[];autosize=1;strokeColor=none;fillColor=none;fontFamily=Helvetica;fontSize=12;fontColor=default;fontStyle=1;" vertex="1" parent="1">
          <mxGeometry x="595" y="278" width="30" height="30" as="geometry" />
        </mxCell>
        <mxCell id="k1nHYCeuwdRHNPCrHHV9-63" value="O" style="text;html=1;align=center;verticalAlign=middle;resizable=0;points=[];autosize=1;strokeColor=none;fillColor=none;fontFamily=Helvetica;fontSize=12;fontColor=default;fontStyle=1;" vertex="1" parent="1">
          <mxGeometry x="685" y="258" width="30" height="30" as="geometry" />
        </mxCell>
        <mxCell id="k1nHYCeuwdRHNPCrHHV9-64" value="y_i" style="text;html=1;align=center;verticalAlign=middle;resizable=0;points=[];autosize=1;strokeColor=none;fillColor=none;fontFamily=Helvetica;fontSize=12;fontColor=default;fontStyle=1;" vertex="1" parent="1">
          <mxGeometry x="630" y="228" width="40" height="30" as="geometry" />
        </mxCell>
        <mxCell id="k1nHYCeuwdRHNPCrHHV9-65" value="x_i" style="text;html=1;align=center;verticalAlign=middle;resizable=0;points=[];autosize=1;strokeColor=none;fillColor=none;fontFamily=Helvetica;fontSize=12;fontColor=default;fontStyle=1;" vertex="1" parent="1">
          <mxGeometry x="620" y="108" width="40" height="30" as="geometry" />
        </mxCell>
        <mxCell id="k1nHYCeuwdRHNPCrHHV9-66" value="y0_i" style="text;html=1;align=center;verticalAlign=middle;resizable=0;points=[];autosize=1;strokeColor=none;fillColor=none;fontFamily=Helvetica;fontSize=12;fontColor=default;fontStyle=1;" vertex="1" parent="1">
          <mxGeometry x="475" y="258" width="50" height="30" as="geometry" />
        </mxCell>
        <mxCell id="k1nHYCeuwdRHNPCrHHV9-67" value="I0" style="text;html=1;align=center;verticalAlign=middle;resizable=0;points=[];autosize=1;strokeColor=none;fillColor=none;fontFamily=Helvetica;fontSize=12;fontColor=default;fontStyle=1;" vertex="1" parent="1">
          <mxGeometry x="445" y="268" width="30" height="30" as="geometry" />
        </mxCell>
        <mxCell id="k1nHYCeuwdRHNPCrHHV9-68" value="I1" style="text;html=1;align=center;verticalAlign=middle;resizable=0;points=[];autosize=1;strokeColor=none;fillColor=none;fontFamily=Helvetica;fontSize=12;fontColor=default;fontStyle=1;" vertex="1" parent="1">
          <mxGeometry x="455" y="298" width="30" height="30" as="geometry" />
        </mxCell>
        <mxCell id="k1nHYCeuwdRHNPCrHHV9-69" value="O" style="text;html=1;align=center;verticalAlign=middle;resizable=0;points=[];autosize=1;strokeColor=none;fillColor=none;fontFamily=Helvetica;fontSize=12;fontColor=default;fontStyle=1;" vertex="1" parent="1">
          <mxGeometry x="535" y="278" width="30" height="30" as="geometry" />
        </mxCell>
        <mxCell id="k1nHYCeuwdRHNPCrHHV9-70" value="O" style="text;html=1;align=center;verticalAlign=middle;resizable=0;points=[];autosize=1;strokeColor=none;fillColor=none;fontFamily=Helvetica;fontSize=12;fontColor=default;fontStyle=1;" vertex="1" parent="1">
          <mxGeometry x="345" y="268" width="30" height="30" as="geometry" />
        </mxCell>
        <mxCell id="k1nHYCeuwdRHNPCrHHV9-71" value="y1_i" style="text;html=1;align=center;verticalAlign=middle;resizable=0;points=[];autosize=1;strokeColor=none;fillColor=none;fontFamily=Helvetica;fontSize=12;fontColor=default;fontStyle=1;" vertex="1" parent="1">
          <mxGeometry x="285" y="248" width="50" height="30" as="geometry" />
        </mxCell>
        <mxCell id="k1nHYCeuwdRHNPCrHHV9-72" value="I0" style="text;html=1;align=center;verticalAlign=middle;resizable=0;points=[];autosize=1;strokeColor=none;fillColor=none;fontFamily=Helvetica;fontSize=12;fontColor=default;fontStyle=1;" vertex="1" parent="1">
          <mxGeometry x="270" y="270" width="30" height="30" as="geometry" />
        </mxCell>
        <mxCell id="k1nHYCeuwdRHNPCrHHV9-74" value="" style="endArrow=none;html=1;strokeWidth=1;rounded=0;fontFamily=Helvetica;fontSize=12;fontColor=default;fontStyle=1;exitX=1;exitY=0.5;exitDx=0;exitDy=0;exitPerimeter=0;" edge="1" parent="1" source="k1nHYCeuwdRHNPCrHHV9-13" target="k1nHYCeuwdRHNPCrHHV9-73">
          <mxGeometry width="100" relative="1" as="geometry">
            <mxPoint x="90" y="265" as="sourcePoint" />
            <mxPoint x="130" y="265" as="targetPoint" />
          </mxGeometry>
        </mxCell>
        <mxCell id="k1nHYCeuwdRHNPCrHHV9-73" value="" style="shape=waypoint;sketch=0;size=6;pointerEvents=1;points=[];fillColor=none;resizable=0;rotatable=0;perimeter=centerPerimeter;snapToPoint=1;strokeColor=#000000;align=center;verticalAlign=middle;fontFamily=Helvetica;fontSize=12;fontColor=default;fontStyle=1;" vertex="1" parent="1">
          <mxGeometry x="120" y="255" width="20" height="20" as="geometry" />
        </mxCell>
        <mxCell id="k1nHYCeuwdRHNPCrHHV9-76" value="" style="endArrow=none;html=1;strokeWidth=1;rounded=0;fontFamily=Helvetica;fontSize=12;fontColor=default;fontStyle=1;exitX=1;exitY=0.5;exitDx=0;exitDy=0;exitPerimeter=0;" edge="1" parent="1" source="k1nHYCeuwdRHNPCrHHV9-12" target="k1nHYCeuwdRHNPCrHHV9-75">
          <mxGeometry width="100" relative="1" as="geometry">
            <mxPoint x="100" y="210" as="sourcePoint" />
            <mxPoint x="160" y="210" as="targetPoint" />
          </mxGeometry>
        </mxCell>
        <mxCell id="k1nHYCeuwdRHNPCrHHV9-75" value="" style="shape=waypoint;sketch=0;size=6;pointerEvents=1;points=[];fillColor=none;resizable=0;rotatable=0;perimeter=centerPerimeter;snapToPoint=1;strokeColor=#000000;align=center;verticalAlign=middle;fontFamily=Helvetica;fontSize=12;fontColor=default;fontStyle=1;" vertex="1" parent="1">
          <mxGeometry x="150" y="200" width="20" height="20" as="geometry" />
        </mxCell>
        <mxCell id="k1nHYCeuwdRHNPCrHHV9-78" value="" style="endArrow=none;html=1;strokeWidth=1;rounded=0;fontFamily=Helvetica;fontSize=12;fontColor=default;fontStyle=1;exitX=1;exitY=0.5;exitDx=0;exitDy=0;exitPerimeter=0;entryDx=0;entryDy=0;entryPerimeter=0;" edge="1" parent="1" source="k1nHYCeuwdRHNPCrHHV9-1" target="k1nHYCeuwdRHNPCrHHV9-77">
          <mxGeometry width="100" relative="1" as="geometry">
            <mxPoint x="380" y="95" as="sourcePoint" />
            <mxPoint x="470" y="318" as="targetPoint" />
            <Array as="points">
              <mxPoint x="450" y="95" />
            </Array>
          </mxGeometry>
        </mxCell>
        <mxCell id="k1nHYCeuwdRHNPCrHHV9-77" value="" style="shape=waypoint;sketch=0;size=6;pointerEvents=1;points=[];fillColor=none;resizable=0;rotatable=0;perimeter=centerPerimeter;snapToPoint=1;strokeColor=#000000;align=center;verticalAlign=middle;fontFamily=Helvetica;fontSize=12;fontColor=default;fontStyle=1;" vertex="1" parent="1">
          <mxGeometry x="440" y="120" width="20" height="20" as="geometry" />
        </mxCell>
        <mxCell id="k1nHYCeuwdRHNPCrHHV9-80" value="" style="endArrow=none;html=1;strokeWidth=1;rounded=0;fontFamily=Helvetica;fontSize=12;fontColor=default;fontStyle=1;entryDx=0;entryDy=0;entryPerimeter=0;" edge="1" parent="1" target="k1nHYCeuwdRHNPCrHHV9-79">
          <mxGeometry width="100" relative="1" as="geometry">
            <mxPoint x="450" y="130" as="sourcePoint" />
            <mxPoint x="610" y="275" as="targetPoint" />
            <Array as="points">
              <mxPoint x="570" y="130" />
            </Array>
          </mxGeometry>
        </mxCell>
        <mxCell id="k1nHYCeuwdRHNPCrHHV9-79" value="" style="shape=waypoint;sketch=0;size=6;pointerEvents=1;points=[];fillColor=none;resizable=0;rotatable=0;perimeter=centerPerimeter;snapToPoint=1;strokeColor=#000000;align=center;verticalAlign=middle;fontFamily=Helvetica;fontSize=12;fontColor=default;fontStyle=1;" vertex="1" parent="1">
          <mxGeometry x="560" y="168" width="20" height="20" as="geometry" />
        </mxCell>
      </root>
    </mxGraphModel>
  </diagram>
</mxfile>
